<svg viewBox="0 0 154 170" xmlns="http://www.w3.org/2000/svg">
  <style>
    .fill-letter { fill: white; }
    .hexagon {
      fill: #2A3B47;
      stroke: #00C4B0;
      stroke-width: 9;
    }
  </style>
  <path d="M69.25 25.6709C74.0457 22.9021 79.9543 22.9021 84.75 25.6709L131.434 52.624C136.229 55.3928 139.184 60.5093 139.184 66.0469V119.953C139.184 125.491 136.229 130.607 131.434 133.376L84.75 160.329C79.9543 163.098 74.0457 163.098 69.25 160.329L22.5664 133.376C17.7707 130.607 14.8165 125.491 14.8164 119.953V66.0469C14.8165 60.5093 17.7707 55.3928 22.5664 52.624L69.25 25.6709Z" class="hexagon"/>
  <path d="M96.784 124V109.152L96.4 106.72V81.888C96.4 76.1707 94.7787 71.776 91.536 68.704C88.3787 65.632 83.6427 64.096 77.328 64.096C72.976 64.096 68.8373 64.8213 64.912 66.272C60.9867 67.7227 57.6587 69.6427 54.928 72.032L50.832 65.248C54.2453 62.3467 58.3413 60.128 63.12 58.592C67.8987 56.9707 72.9333 56.16 78.224 56.16C86.928 56.16 93.6267 58.336 98.32 62.688C103.099 66.9547 105.488 73.4827 105.488 82.272V124H96.784ZM73.616 124.64C68.5813 124.64 64.1867 123.829 60.432 122.208C56.7627 120.501 53.9467 118.197 51.984 115.296C50.0213 112.309 49.04 108.896 49.04 105.056C49.04 101.557 49.8507 98.4 51.472 95.584C53.1787 92.6827 55.9093 90.3787 59.664 88.672C63.504 86.88 68.624 85.984 75.024 85.984H98.192V92.768H75.28C68.7947 92.768 64.272 93.92 61.712 96.224C59.2373 98.528 58 101.387 58 104.8C58 108.64 59.4933 111.712 62.48 114.016C65.4667 116.32 69.648 117.472 75.024 117.472C80.144 117.472 84.5387 116.32 88.208 114.016C91.9627 111.627 94.6933 108.213 96.4 103.776L98.448 110.048C96.7413 114.485 93.7547 118.027 89.488 120.672C85.3067 123.317 80.016 124.64 73.616 124.64Z" class="fill-letter"/>
</svg>
