<svg viewBox="0 0 772 171" fill="none" xmlns="http://www.w3.org/2000/svg">
	<style>
      .fill-main { fill: white; }
      .fill-accent { fill: #00C4B0; }
      .stroke-accent {
        fill: none;
        stroke: #00C4B0;
        stroke-width: 9;
      }
    </style>
    <path d="M58.934 6.57687C63.7297 3.80807 69.6382 3.80807 74.434 6.57687L121.118 33.53C125.913 36.2988 128.867 41.4153 128.868 46.9529V100.859C128.867 106.397 125.913 111.513 121.118 114.282L74.434 141.235C69.6382 144.004 63.7297 144.004 58.934 141.235L12.2504 114.282C7.45468 111.513 4.5004 106.397 4.50036 100.859V46.9529C4.50041 41.4153 7.45468 36.2988 12.2504 33.53L58.934 6.57687Z" class="stroke-accent"/>
	<path d="M85.468 106.906V92.058L85.084 89.626V64.794C85.084 59.0766 83.4626 54.682 80.22 51.61C77.0626 48.538 72.3266 47.002 66.012 47.002C61.66 47.002 57.5213 47.7273 53.596 49.178C49.6706 50.6286 46.3426 52.5486 43.612 54.938L39.516 48.154C42.9293 45.2526 47.0253 43.034 51.804 41.498C56.5826 39.8766 61.6173 39.066 66.908 39.066C75.612 39.066 82.3106 41.242 87.004 45.594C91.7826 49.8606 94.172 56.3886 94.172 65.178V106.906H85.468ZM62.3 107.546C57.2653 107.546 52.8706 106.735 49.116 105.114C45.4466 103.407 42.6306 101.103 40.668 98.202C38.7053 95.2153 37.724 91.802 37.724 87.962C37.724 84.4633 38.5346 81.306 40.156 78.49C41.8626 75.5886 44.5933 73.2846 48.348 71.578C52.188 69.786 57.308 68.89 63.708 68.89H86.876V75.674H63.964C57.4786 75.674 52.956 76.826 50.396 79.13C47.9213 81.434 46.684 84.2926 46.684 87.706C46.684 91.546 48.1773 94.618 51.164 96.922C54.1506 99.226 58.332 100.378 63.708 100.378C68.828 100.378 73.2226 99.226 76.892 96.922C80.6466 94.5326 83.3773 91.1193 85.084 86.682L87.132 92.954C85.4253 97.3913 82.4386 100.933 78.172 103.578C73.9906 106.223 68.7 107.546 62.3 107.546Z" class="fill-main"/>
	<path d="M175.66 39.066C181.121 39.066 185.9 40.1326 189.996 42.266C194.177 44.314 197.42 47.4713 199.724 51.738C202.113 56.0046 203.308 61.3806 203.308 67.866V106.906H194.22V68.762C194.22 61.6793 192.428 56.346 188.844 52.762C185.345 49.0926 180.396 47.258 173.996 47.258C169.217 47.258 165.036 48.2393 161.452 50.202C157.953 52.0793 155.223 54.8526 153.26 58.522C151.383 62.106 150.444 66.458 150.444 71.578V106.906H141.356V39.706H150.06V58.138L148.652 54.682C150.785 49.818 154.199 46.0206 158.892 43.29C163.585 40.474 169.175 39.066 175.66 39.066ZM269.968 106.906V92.058L269.584 89.626V64.794C269.584 59.0766 267.963 54.682 264.72 51.61C261.563 48.538 256.827 47.002 250.512 47.002C246.16 47.002 242.021 47.7273 238.096 49.178C234.171 50.6286 230.843 52.5486 228.112 54.938L224.016 48.154C227.429 45.2526 231.525 43.034 236.304 41.498C241.083 39.8766 246.117 39.066 251.408 39.066C260.112 39.066 266.811 41.242 271.504 45.594C276.283 49.8606 278.672 56.3886 278.672 65.178V106.906H269.968ZM246.8 107.546C241.765 107.546 237.371 106.735 233.616 105.114C229.947 103.407 227.131 101.103 225.168 98.202C223.205 95.2153 222.224 91.802 222.224 87.962C222.224 84.4633 223.035 81.306 224.656 78.49C226.363 75.5886 229.093 73.2846 232.848 71.578C236.688 69.786 241.808 68.89 248.208 68.89H271.376V75.674H248.464C241.979 75.674 237.456 76.826 234.896 79.13C232.421 81.434 231.184 84.2926 231.184 87.706C231.184 91.546 232.677 94.618 235.664 96.922C238.651 99.226 242.832 100.378 248.208 100.378C253.328 100.378 257.723 99.226 261.392 96.922C265.147 94.5326 267.877 91.1193 269.584 86.682L271.632 92.954C269.925 97.3913 266.939 100.933 262.672 103.578C258.491 106.223 253.2 107.546 246.8 107.546ZM303.356 106.906V11.93H312.444V106.906H303.356ZM338.243 132.378C335.086 132.378 332.056 131.866 329.155 130.842C326.339 129.818 323.907 128.282 321.859 126.234L326.083 119.45C327.79 121.071 329.624 122.309 331.587 123.162C333.635 124.101 335.896 124.57 338.371 124.57C341.358 124.57 343.918 123.717 346.051 122.01C348.27 120.389 350.36 117.487 352.323 113.306L356.675 103.45L357.699 102.042L385.347 39.706H394.307L360.643 114.97C358.766 119.322 356.675 122.778 354.371 125.338C352.152 127.898 349.72 129.69 347.075 130.714C344.43 131.823 341.486 132.378 338.243 132.378ZM356.163 108.826L325.187 39.706H334.659L362.051 101.402L356.163 108.826ZM430.229 107.546C423.914 107.546 419.05 105.839 415.637 102.426C412.224 99.0126 410.517 94.1913 410.517 87.962V24.858H419.605V87.45C419.605 91.3753 420.586 94.4046 422.549 96.538C424.597 98.6713 427.498 99.738 431.253 99.738C435.264 99.738 438.592 98.586 441.237 96.282L444.437 102.81C442.645 104.431 440.469 105.626 437.909 106.394C435.434 107.162 432.874 107.546 430.229 107.546ZM398.485 47.258V39.706H440.085V47.258H398.485ZM460.981 106.906V39.706H470.069V106.906H460.981ZM465.589 24.858C463.712 24.858 462.133 24.218 460.853 22.938C459.573 21.658 458.933 20.122 458.933 18.33C458.933 16.538 459.573 15.0446 460.853 13.85C462.133 12.57 463.712 11.93 465.589 11.93C467.466 11.93 469.045 12.5273 470.325 13.722C471.605 14.9166 472.245 16.41 472.245 18.202C472.245 20.0793 471.605 21.658 470.325 22.938C469.13 24.218 467.552 24.858 465.589 24.858ZM512.241 106.906L540.657 70.042L540.529 74.522L513.521 39.706H523.761L545.905 68.506L542.065 68.378L564.209 39.706H574.193L546.929 74.906L547.057 70.042L575.729 106.906H565.361L541.937 76.186L545.521 76.698L522.481 106.906H512.241ZM587.493 132.378C584.336 132.378 581.306 131.866 578.405 130.842C575.589 129.818 573.157 128.282 571.109 126.234L575.333 119.45C577.04 121.071 578.874 122.309 580.837 123.162C582.885 124.101 585.146 124.57 587.621 124.57C590.608 124.57 593.168 123.717 595.301 122.01C597.52 120.389 599.61 117.487 601.573 113.306L605.925 103.45L606.949 102.042L634.597 39.706H643.557L609.893 114.97C608.016 119.322 605.925 122.778 603.621 125.338C601.402 127.898 598.97 129.69 596.325 130.714C593.68 131.823 590.736 132.378 587.493 132.378ZM605.413 108.826L574.437 39.706H583.909L611.301 101.402L605.413 108.826Z" class="fill-main"/>
	<path d="M496.252 107.546C494.375 107.546 492.753 106.863 491.388 105.498C490.108 104.133 489.468 102.469 489.468 100.506C489.468 98.458 490.108 96.794 491.388 95.514C492.753 94.234 494.375 93.594 496.252 93.594C498.129 93.594 499.708 94.234 500.988 95.514C502.353 96.794 503.036 98.458 503.036 100.506C503.036 102.469 502.353 104.133 500.988 105.498C499.708 106.863 498.129 107.546 496.252 107.546Z" class="fill-accent"/>
	<path d="M632.611 116.614C629.279 112.191 628.559 106.326 630.722 101.229L651.785 51.6087C653.949 46.5113 658.667 42.9555 664.163 42.2806L717.668 35.7111C723.164 35.0363 728.603 37.345 731.935 41.7675L764.377 84.8184C767.709 89.2409 768.429 95.1054 766.266 100.203L745.203 149.823C743.039 154.921 738.321 158.476 732.824 159.151L679.32 165.721C673.824 166.396 668.385 164.087 665.053 159.664L632.611 116.614Z" class="stroke-accent"/>
	<path d="M676.872 135.93L676.139 129.958L713.694 68.2174L715.974 71.0325L670.365 76.6326L669.445 69.1369L722.169 62.6632L722.886 68.5073L685.473 130.36L682.812 127.592L730.327 121.757L731.248 129.253L676.872 135.93Z" class="fill-main"/>
</svg>
